HIERARCHY
ROOT Hips
{
	OFFSET 0.000000 0.000000 0.000000
	CHANNELS 6 Xposition Yposition Zposition Xrotation Yrotation Zrotation
	JOINT LeftUpLeg_virtual
	{
		OFFSET 0.000000 0.000000 0.000000
		CHANNELS 3 Xrotation Yrotation Zrotation
		JOINT LeftUpLeg
		{
			OFFSET 11.394100 -6.187798 -0.413800
			CHANNELS 3 Xrotation Yrotation Zrotation
			JOINT LeftLeg
			{
				OFFSET 0.430247 -32.302673 3.732800
				CHANNELS 3 Xrotation Yrotation Zrotation
				JOINT LeftFoot
				{
					OFFSET -0.430247 -48.264931 -6.423300
					CHANNELS 3 Xrotation Yrotation Zrotation
					JOINT LeftToeBase
					{
						OFFSET 4.230900 -16.068199 23.438400
						CHANNELS 3 Xrotation Yrotation Zrotation
						JOINT LeftToe_End
						{
							OFFSET 4.510700 0.695400 19.974600
							CHANNELS 3 Xrotation Yrotation Zrotation
							End Site
							{
								OFFSET 0 0 0
							}
						}
					}
				}
			}
		}
	}
	JOINT RightUpLeg_virtual
	{
		OFFSET 0.000000 0.000000 0.000000
		CHANNELS 3 Xrotation Yrotation Zrotation
		JOINT RightUpLeg
		{
			OFFSET -11.333700 -6.187798 -0.413800
			CHANNELS 3 Xrotation Yrotation Zrotation
			JOINT RightLeg
			{
				OFFSET -0.430392 -32.302628 3.733000
				CHANNELS 3 Xrotation Yrotation Zrotation
				JOINT RightFoot
				{
					OFFSET 0.430392 -48.264973 -6.423500
					CHANNELS 3 Xrotation Yrotation Zrotation
					JOINT RightToeBase
					{
						OFFSET -4.230900 -16.068199 23.438400
						CHANNELS 3 Xrotation Yrotation Zrotation
						JOINT RightToe_End
						{
							OFFSET -4.510700 0.695400 19.974600
							CHANNELS 3 Xrotation Yrotation Zrotation
							End Site
							{
								OFFSET 0 0 0
							}
						}
					}
				}
			}
		}
	}
	JOINT Spine_virtual
	{
		OFFSET 0.000000 0.000000 0.000000
		CHANNELS 3 Xrotation Yrotation Zrotation
		JOINT Spine
		{
			OFFSET -0.002400 12.777504 0.315300
			CHANNELS 3 Xrotation Yrotation Zrotation
			JOINT Spine1
			{
				OFFSET -0.002067 5.816869 0.032633
				CHANNELS 3 Xrotation Yrotation Zrotation
				JOINT Spine1_split
				{
					OFFSET -0.002067 5.816869 0.032633
					CHANNELS 3 Xrotation Yrotation Zrotation
					JOINT Spine2
					{
						OFFSET -0.002067 5.816869 0.032633
						CHANNELS 3 Xrotation Yrotation Zrotation
						JOINT Neck_virtual
						{
							OFFSET 0.000000 0.000000 0.000000
							CHANNELS 3 Xrotation Yrotation Zrotation
							JOINT Neck
							{
								OFFSET -0.003700 21.199493 -0.826900
								CHANNELS 3 Xrotation Yrotation Zrotation
								JOINT Head
								{
									OFFSET 0.000000 20.442200 4.834800
									CHANNELS 3 Xrotation Yrotation Zrotation
									JOINT HeadTop_End
									{
										OFFSET 0.000000 34.668396 4.968400
										CHANNELS 3 Xrotation Yrotation Zrotation
										End Site
										{
											OFFSET 0 0 0
										}
									}
								}
							}
						}
						JOINT LeftShoulder_virtual
						{
							OFFSET 0.000000 0.000000 0.000000
							CHANNELS 3 Xrotation Yrotation Zrotation
							JOINT LeftShoulder
							{
								OFFSET 3.288150 8.794197 -1.372250
								CHANNELS 3 Xrotation Yrotation Zrotation
								JOINT LeftShoulder_split
								{
									OFFSET 3.288150 8.794197 -1.372250
									CHANNELS 3 Xrotation Yrotation Zrotation
									JOINT LeftArm
									{
										OFFSET 11.953299 -2.279007 -0.146200
										CHANNELS 3 Xrotation Yrotation Zrotation
										JOINT LeftForeArm
										{
											OFFSET 18.448900 0.000000 0.000000
											CHANNELS 3 Xrotation Yrotation Zrotation
											JOINT LeftHand
											{
												OFFSET 29.527798 0.000000 0.000000
												CHANNELS 3 Xrotation Yrotation Zrotation
												End Site
												{
													OFFSET 0 0 0
												}
											}
										}
									}
								}
							}
						}
						JOINT RightShoulder_virtual
						{
							OFFSET 0.000000 0.000000 0.000000
							CHANNELS 3 Xrotation Yrotation Zrotation
							JOINT RightShoulder
							{
								OFFSET -3.249400 8.794197 -1.372250
								CHANNELS 3 Xrotation Yrotation Zrotation
								JOINT RightShoulder_split
								{
									OFFSET -3.249400 8.794197 -1.372250
									CHANNELS 3 Xrotation Yrotation Zrotation
									JOINT RightArm
									{
										OFFSET -11.953299 -2.279007 -0.146200
										CHANNELS 3 Xrotation Yrotation Zrotation
										JOINT RightForeArm
										{
											OFFSET -18.448900 0.000000 0.000000
											CHANNELS 3 Xrotation Yrotation Zrotation
											JOINT RightHand
											{
												OFFSET -29.527802 0.000000 0.000000
												CHANNELS 3 Xrotation Yrotation Zrotation
												End Site
												{
													OFFSET 0 0 0
												}
											}
										}
									}
								}
							}
						}
					}
				}
			}
		}
	}
}
MOTION
Frames: 12
Frame Time: 0.03333333
-0.662804 100.506767 -2.831749 0.000000 0.000000 0.000000 -5.627816 -3.168763 0.393869 -7.506888 5.098352 8.472857 17.311570 11.321279 1.011002 -4.372641 3.825182 -7.610682 2.762416 0.297651 -2.248510 0.000000 0.000000 0.000000 -5.357445 -2.839964 0.379706 -8.679915 -8.965468 -7.963480 19.986530 -8.764278 -0.443907 -3.604805 -5.708793 5.134971 -2.889663 0.102921 -0.858962 0.000000 0.000000 0.000000 -5.011843 -3.207174 0.040698 3.521429 1.620948 -1.814238 1.258119 0.195405 0.134655 0.867181 -1.122830 0.104698 0.000000 0.000000 0.000000 0.689874 0.706697 0.000120 3.099317 0.258646 0.000926 18.420890 -11.380417 0.215187 0.000000 0.000000 0.000000 0.734949 0.514531 -0.005376 2.793000 -3.850311 -12.399909 -1.238626 -0.846752 -1.648159 -3.601567 -7.939168 -58.807888 -1.213468 -12.935303 0.272594 0.000000 0.000000 0.000000 0.741300 0.325030 0.029138 2.379810 0.839301 15.530447 -0.337194 1.846015 -2.301689 -1.660706 8.468460 64.808871 0.181783 15.752313 1.034230 0.000000 0.000000 0.000000 
-0.648867 100.539757 -3.052692 0.000000 0.000000 0.000000 -5.740859 -3.096131 0.430106 -7.648518 4.947922 8.441606 17.426533 11.209781 1.018140 -4.225890 3.651628 -7.706315 2.688769 0.298034 -2.196311 0.000000 0.000000 0.000000 -5.464098 -2.687374 0.409972 -8.589165 -8.999293 -7.962050 20.004144 -8.695915 -0.496833 -3.594675 -5.819026 5.142757 -2.560092 0.068511 -0.825284 0.000000 0.000000 0.000000 -5.058103 -2.924483 0.144789 3.565115 1.707238 -1.764706 1.281064 0.228527 0.109508 0.935070 -0.866469 0.184485 0.000000 0.000000 0.000000 0.646319 0.705042 0.002606 3.112910 0.172171 -0.014619 18.414462 -11.451589 0.281004 0.000000 0.000000 0.000000 0.730473 0.536495 -0.042462 2.768053 -3.733924 -12.473978 -1.374827 -0.422183 -1.883915 -2.820691 -7.270484 -58.651743 -1.207272 -12.401286 0.294045 0.000000 0.000000 0.000000 0.775106 0.378083 0.006413 2.353985 1.013767 15.522703 -0.413254 2.213168 -2.483955 -2.363359 8.804268 64.773880 0.248976 16.367280 0.913548 0.000000 0.000000 0.000000 
-0.687135 100.521599 -3.325294 0.000000 0.000000 0.000000 -5.946833 -2.614762 0.565908 -8.005077 4.786314 8.322859 17.768850 11.043647 1.018201 -4.186071 3.324577 -7.665160 2.595361 0.293090 -2.131513 0.000000 0.000000 0.000000 -5.672610 -2.102874 0.535546 -8.449472 -9.009627 -7.939806 20.359144 -8.673796 -0.540096 -3.883518 -6.217049 5.060737 -2.345690 0.017843 -0.807481 0.000000 0.000000 0.000000 -5.264685 -2.345568 0.310101 3.746992 1.855456 -1.680785 1.317226 0.280965 0.099484 0.984036 -0.810855 0.225476 0.000000 0.000000 0.000000 0.620277 0.724035 0.022533 3.028908 0.044925 -0.009533 18.355455 -11.743464 0.436668 0.000000 0.000000 0.000000 0.746590 0.572252 -0.062331 2.742532 -3.655078 -12.513316 -1.560869 -0.255779 -1.926869 -1.861989 -6.138691 -58.697608 -1.094376 -11.526601 0.341880 0.000000 0.000000 0.000000 0.832361 0.451947 0.002045 2.311559 1.235617 15.560054 -0.334150 2.319262 -2.557467 -3.373683 9.668399 64.455115 0.329948 17.370404 0.798730 0.000000 0.000000 0.000000 
-0.784028 100.464493 -3.600105 0.000000 0.000000 0.000000 -6.211777 -1.810930 0.766772 -8.505090 4.627544 8.147774 18.298312 10.841567 1.022504 -4.272792 2.903736 -7.497564 2.514546 0.283917 -2.079247 0.000000 0.000000 0.000000 -5.972340 -1.227333 0.734514 -8.274300 -8.992589 -7.894096 20.938093 -8.688877 -0.577730 -4.444649 -6.845472 4.888861 -2.220056 -0.043682 -0.802556 0.000000 0.000000 0.000000 -5.591408 -1.581141 0.505694 4.026320 2.049318 -1.585264 1.350241 0.341592 0.103653 1.006420 -0.838431 0.230963 0.000000 0.000000 0.000000 0.618067 0.759771 0.055209 2.863075 -0.102659 0.005721 18.267455 -12.216505 0.661071 0.000000 0.000000 0.000000 0.782394 0.617325 -0.055703 2.730538 -3.611539 -12.502646 -1.661300 -0.393737 -1.818571 -0.874098 -4.774468 -58.909220 -0.899458 -10.570677 0.390597 0.000000 0.000000 0.000000 0.897270 0.529287 0.017241 2.258763 1.467933 15.668077 -0.177878 2.187124 -2.504804 -4.414627 10.781523 63.943719 0.418722 18.600212 0.706779 0.000000 0.000000 0.000000 
-0.908584 100.373489 -3.905472 0.000000 0.000000 0.000000 -6.516269 -0.829390 0.993801 -9.075727 4.486065 7.973237 18.934085 10.613660 1.038209 -4.452094 2.447698 -7.273941 2.472706 0.271760 -2.047910 0.000000 0.000000 0.000000 -6.332075 -0.249465 0.967066 -8.105226 -8.935118 -7.814040 21.602271 -8.719918 -0.609646 -5.138879 -7.608131 4.639329 -2.104744 -0.103985 -0.808277 0.000000 0.000000 0.000000 -6.010073 -0.733490 0.709176 4.347074 2.274363 -1.495808 1.370110 0.405991 0.121499 1.002238 -0.851933 0.236339 0.000000 0.000000 0.000000 0.642982 0.808895 0.098721 2.675977 -0.264266 0.023282 18.187750 -12.815918 0.934911 0.000000 0.000000 0.000000 0.828615 0.671376 -0.027744 2.742988 -3.571781 -12.466191 -1.648396 -0.650263 -1.629247 0.095202 -3.316498 -59.243579 -0.662385 -9.673850 0.405321 0.000000 0.000000 0.000000 0.955735 0.595733 0.048747 2.209414 1.691747 15.838944 0.026561 2.029830 -2.450537 -5.315056 11.858603 63.400500 0.494739 19.993960 0.658159 0.000000 0.000000 0.000000 
-1.045380 100.268799 -4.172348 0.000000 0.000000 0.000000 -6.830231 0.160879 1.209213 -9.625004 4.384859 7.848692 19.579364 10.375965 1.055881 -4.705334 2.016263 -7.051751 2.477846 0.257316 -2.031485 0.000000 0.000000 0.000000 -6.713117 0.687028 1.194537 -7.963094 -8.862902 -7.704290 22.244113 -8.740651 -0.623921 -5.732971 -8.399744 4.394060 -1.975492 -0.149497 -0.814903 0.000000 0.000000 0.000000 -6.449906 0.121143 0.901447 4.654796 2.516233 -1.425478 1.365223 0.469979 0.150295 1.037065 -0.872762 0.187097 0.000000 0.000000 0.000000 0.679812 0.870773 0.148302 2.530671 -0.419822 0.025853 18.142618 -13.487276 1.249467 0.000000 0.000000 0.000000 0.873212 0.733043 0.020468 2.779836 -3.519039 -12.392363 -1.591676 -0.934054 -1.455472 1.040773 -1.911177 -59.601173 -0.437066 -8.915687 0.367540 0.000000 0.000000 0.000000 0.999321 0.648365 0.092990 2.172883 1.906629 16.037066 0.246060 1.940938 -2.410563 -5.964346 12.709677 62.958963 0.548209 21.475734 0.658694 0.000000 0.000000 0.000000 
-1.183756 100.179901 -4.403687 0.000000 0.000000 0.000000 -7.138620 1.043516 1.389598 -10.111086 4.341552 7.797093 20.167378 10.147032 1.060444 -4.998707 1.637836 -6.861398 2.496663 0.244110 -2.005278 0.000000 0.000000 0.000000 -7.090122 1.516695 1.391089 -7.845169 -8.794412 -7.566329 22.751597 -8.744944 -0.630686 -6.036556 -9.164331 4.259548 -1.908400 -0.169510 -0.823731 0.000000 0.000000 0.000000 -6.873554 0.941532 1.067781 4.915781 2.762581 -1.375046 1.340586 0.540212 0.185819 1.091162 -0.900726 0.173446 0.000000 0.000000 0.000000 0.719922 0.937526 0.204318 2.468637 -0.554462 0.016370 18.139562 -14.195349 1.599750 0.000000 0.000000 0.000000 0.911381 0.797313 0.077636 2.830613 -3.468659 -12.277636 -1.541345 -1.163286 -1.363534 2.035304 -0.601644 -59.895336 -0.264505 -8.335213 0.285911 0.000000 0.000000 0.000000 1.019771 0.690000 0.137487 2.142249 2.119193 16.216706 0.452623 1.930361 -2.419575 -6.411688 13.249809 62.702004 0.581755 22.960010 0.677237 0.000000 0.000000 0.000000 
-1.313361 100.112549 -4.611382 0.000000 0.000000 0.000000 -7.433945 1.773621 1.530578 -10.493972 4.352799 7.832934 20.677185 9.921631 1.040802 -5.312763 1.329767 -6.722707 2.498677 0.237840 -1.959587 0.000000 0.000000 0.000000 -7.419345 2.199323 1.546471 -7.732870 -8.722301 -7.414891 23.031277 -8.717541 -0.650453 -6.022877 -9.858680 4.277774 -1.949378 -0.169048 -0.823542 0.000000 0.000000 0.000000 -7.250673 1.683828 1.209561 5.114555 3.001605 -1.341415 1.317393 0.620186 0.220664 1.095138 -0.932033 0.195818 0.000000 0.000000 0.000000 0.746048 1.003670 0.260939 2.505399 -0.663265 -0.015940 18.139888 -14.911005 1.975816 0.000000 0.000000 0.000000 0.940713 0.864799 0.130288 2.881958 -3.453171 -12.113451 -1.486929 -1.284704 -1.396706 3.074800 0.598419 -60.113745 -0.162002 -8.002866 0.180358 0.000000 0.000000 0.000000 1.020957 0.734855 0.176071 2.119554 2.335039 16.331259 0.623287 1.975093 -2.439572 -6.691192 13.561515 62.609373 0.593568 24.387675 0.702666 0.000000 0.000000 0.000000 
-1.419133 100.074341 -4.819584 0.000000 0.000000 0.000000 -7.699727 2.374818 1.635836 -10.775830 4.375448 7.921757 21.124988 9.695570 0.996709 -5.628727 1.112885 -6.632421 2.495618 0.239773 -1.900276 0.000000 0.000000 0.000000 -7.683189 2.750559 1.655322 -7.583011 -8.679076 -7.286646 23.094878 -8.675728 -0.683684 -5.794534 -10.459473 4.417373 -2.026506 -0.149313 -0.798365 0.000000 0.000000 0.000000 -7.522179 2.338030 1.344806 5.259395 3.218699 -1.314449 1.302178 0.706141 0.247540 1.073800 -0.915732 0.218542 0.000000 0.000000 0.000000 0.744237 1.061750 0.310749 2.595678 -0.749222 -0.079089 18.074794 -15.602273 2.368719 0.000000 0.000000 0.000000 0.957997 0.931106 0.172634 2.922293 -3.503619 -11.903646 -1.409832 -1.296333 -1.517953 4.095805 1.651380 -60.283215 -0.102208 -7.972074 0.076201 0.000000 0.000000 0.000000 1.022312 0.791509 0.208512 2.100938 2.567502 16.362690 0.677651 2.009699 -2.391235 -6.826930 13.784041 62.592031 0.602628 25.679672 0.724048 0.000000 0.000000 0.000000 
-1.502650 100.051453 -5.044735 0.000000 0.000000 0.000000 -7.917490 2.915611 1.725750 -11.008487 4.373876 8.004854 21.543928 9.472129 0.939170 -5.945730 0.989175 -6.571085 2.491852 0.247219 -1.834117 0.000000 0.000000 0.000000 -7.884728 3.202610 1.739455 -7.422133 -8.671475 -7.203427 23.065600 -8.642513 -0.720429 -5.547783 -10.984210 4.597565 -2.055482 -0.111109 -0.738056 0.000000 0.000000 0.000000 -7.702069 2.936100 1.483930 5.388286 3.398995 -1.282434 1.303664 0.795474 0.263625 1.066749 -0.850297 0.238753 0.000000 0.000000 0.000000 0.732252 1.109266 0.350591 2.686151 -0.818341 -0.160416 17.872042 -16.244319 2.762055 0.000000 0.000000 0.000000 0.970314 0.992310 0.201898 2.950023 -3.625358 -11.672537 -1.255684 -1.229989 -1.609137 5.070242 2.512874 -60.474092 -0.037862 -8.259772 -0.020772 0.000000 0.000000 0.000000 1.036823 0.853599 0.232084 2.082272 2.806274 16.319074 0.686342 2.031584 -2.350506 -6.847695 14.025871 62.542301 0.601140 26.861539 0.742516 0.000000 0.000000 0.000000 
-1.572246 100.014946 -5.280567 0.000000 0.000000 0.000000 -8.096861 3.452700 1.816940 -11.226827 4.335934 8.043177 21.935448 9.274045 0.879688 -6.316342 0.957659 -6.488935 2.495296 0.252466 -1.767304 0.000000 0.000000 0.000000 -8.028017 3.610435 1.822243 -7.324130 -8.694984 -7.172587 23.098453 -8.619027 -0.749521 -5.473028 -11.430832 4.769610 -2.044625 -0.059938 -0.654530 0.000000 0.000000 0.000000 -7.802514 3.494994 1.634524 5.530320 3.531245 -1.244161 1.323180 0.882084 0.269024 1.066328 -0.789619 0.226834 0.000000 0.000000 0.000000 0.730707 1.148749 0.377722 2.727128 -0.877285 -0.252797 17.477947 -16.842663 3.156088 0.000000 0.000000 0.000000 0.987620 1.048683 0.218643 2.970683 -3.811357 -11.417385 -1.059779 -1.123456 -1.658808 5.942650 3.117957 -60.740824 0.062747 -8.775150 -0.104010 0.000000 0.000000 0.000000 1.071013 0.913691 0.248983 2.065810 3.044094 16.225307 0.698226 2.042382 -2.330012 -6.758824 14.347062 62.416639 0.589033 28.028615 0.756907 0.000000 0.000000 0.000000 
-1.629223 99.952713 -5.530182 0.000000 0.000000 0.000000 -8.240475 3.988115 1.928227 -11.436820 4.264483 7.997647 22.304809 9.117461 0.832572 -6.780894 0.984046 -6.366251 2.495309 0.251564 -1.701238 0.000000 0.000000 0.000000 -8.146846 4.009131 1.926928 -7.293405 -8.741723 -7.158505 23.304259 -8.606869 -0.774549 -5.719390 -11.813015 4.912731 -2.013557 -0.004928 -0.582513 0.000000 0.000000 0.000000 -7.852337 4.016938 1.802897 5.699999 3.611582 -1.209836 1.359518 0.961676 0.265741 1.069323 -0.693532 0.187685 0.000000 0.000000 0.000000 0.747428 1.177838 0.393772 2.708749 -0.928347 -0.332163 16.864234 -17.406882 3.546396 0.000000 0.000000 0.000000 1.012853 1.095724 0.227425 2.995493 -4.085381 -11.148353 -0.833177 -1.006259 -1.657352 6.661966 3.409041 -61.079110 0.211547 -9.347953 -0.165653 0.000000 0.000000 0.000000 1.127621 0.966126 0.261999 2.052160 3.283846 16.078754 0.712376 2.054179 -2.296947 -6.568945 14.738694 62.216528 0.598390 29.204639 0.748453 0.000000 0.000000 0.000000 
